<mxfile host="app.diagrams.net" modified="2023-04-17T15:06:20.759Z" agent="Mozilla/5.0 (Windows NT 10.0; Win64; x64) AppleWebKit/537.36 (KHTML, like Gecko) Chrome/112.0.0.0 Safari/537.36" version="21.1.8" etag="zn7jeccnXkJxFYpCdG3Z" type="github">
  <diagram name="Trang-1" id="e9tK4iQnXKfD4DQIEMuG">
    <mxGraphModel>
      <root>
        <mxCell id="0" />
        <mxCell id="1" parent="0" />
      </root>
    </mxGraphModel>
  </diagram>
</mxfile>
